<?xml version="1.0" encoding="UTF-8"?>
<svg width="201px" height="201px" viewBox="0 0 201 201" version="1.1" xmlns="http://www.w3.org/2000/svg" xmlns:xlink="http://www.w3.org/1999/xlink">
    <!-- Generator: Sketch 49.3 (51167) - http://www.bohemiancoding.com/sketch -->
    <title>Group 2profile</title>
    <desc>Created with Sketch.</desc>
    <defs>
        <polygon id="path-1" points="0 0 106 0 106 137 0 137"></polygon>
    </defs>
    <g id="Page-1" stroke="none" stroke-width="1" fill="none" fill-rule="evenodd">
        <g id="Registration" transform="translate(-126.000000, -218.000000)">
            <g id="Group-2" transform="translate(129.000000, 221.000000)">
                <circle id="Oval" stroke="#9FD6F4" stroke-width="5" fill-rule="nonzero" cx="97.5" cy="97.5" r="97.5"></circle>
                <g id="Group-3" transform="translate(45.000000, 30.000000)">
                    <mask id="mask-2" fill="white">
                        <use xlink:href="#path-1"></use>
                    </mask>
                    <g id="Clip-2"></g>
                    <path d="M53,137 C32.4412811,137 13.5800712,128.728793 0,115.189135 L31.3096085,101.841262 C33.1957295,100.901138 34.5160142,98.8309861 34.5160142,96.5746897 L34.5160142,91.8740722 C34.5160142,90.5597796 34.13879,89.0537018 33.1957295,88.1135783 C27.7259786,81.5327138 23.9537367,72.1314789 23.0106762,69.3111084 C22.8220641,68.7470343 22.4448399,68.3709849 22.0676157,67.9949355 C21.1245552,67.054812 19.2384342,64.8003958 18.2953737,59.3457993 C17.3523132,54.0811078 19.0498221,51.0727126 20.1814947,49.7584199 C20.747331,49.0044409 20.9359431,47.8781729 20.9359431,46.9380494 L20.9359431,24.1851806 C23.0106762,11.3995011 30.366548,5.57261566 37.5338078,2.56234023 C45.6441281,-0.822104352 59.9786477,-0.822104352 67.9003559,2.37431553 C75.2562278,5.19468602 82.9893238,11.0234517 85.0640569,24.1851806 L85.0640569,46.7481445 C85.0640569,47.688268 85.252669,48.8182964 85.8185053,49.568515 C86.9501779,50.8846879 88.8362989,54.0811078 87.7046263,59.1596549 C86.5729537,64.6104909 84.8754448,66.8667873 83.9323843,67.8069108 C83.5551601,68.1829602 83.1779359,68.5608898 82.9893238,69.1230837 C81.8576512,72.1314789 78.2740214,81.7226187 72.6156584,88.1135783 C71.86121,89.0537018 71.4839858,90.1837302 71.4839858,91.4999031 L71.4839858,96.9507391 C71.4839858,98.8309861 72.6156584,100.711233 74.1245552,101.465212 L106,115.00299 C92.4199288,128.728793 73.5587189,137 53,137" id="Fill-1" fill="#9FD6F4" mask="url(#mask-2)"></path>
                </g>
            </g>
        </g>
    </g>
</svg>  